# xmcd
#
# Track frame offsets:
#	150
#	15785
#	31492
#	53171
#	70603
#	90317
#	104582
#	137316
#	157419
#	182817
#	204339
#	225875
#	252722
#	269982
#	282297
#	303300
#
# Disc length: 4256 seconds
#
# Revision: 0
# Processed by: cddbd v1.5.1PL0 Copyright (c) Steve Scherf et al.
# Submitted via: dBpowerAMP V4.0
#
DISCID=d9109e10
DTITLE=Al Wilson - Spice Of Life
DYEAR=2001
DGENRE=R&B
TTITLE0=Show And Tell
TTITLE1=La La (Peace Song)
TTITLE2=Touch And Go
TTITLE3=I Won't Last A Day Without You
TTITLE4=The Snake
TTITLE5=You Do The Right Things
TTITLE6=Desires/I'll Wait For You
TTITLE7=Lottery Of Love
TTITLE8=Curacao Of Love
TTITLE9=Short Stakes And Bad Brakes/Harry's Lament
TTITLE10=Lightening Bolts, Tornadoes And Rainbows
TTITLE11=Lolita From Bonita
TTITLE12=Cutting Corners
TTITLE13=Weeping In The City
TTITLE14=We're Gonna Need One Another
TTITLE15=Show And Tell (1996 Version)
EXTD=Record Label: Classic World Productions Inc.\n#CWP 1357 \ninfo@classicworldproductions.com\nhttp://www.classicworldproductions.com
EXTT0=
EXTT1=
EXTT2=
EXTT3=
EXTT4=
EXTT5=
EXTT6=
EXTT7=
EXTT8=
EXTT9=
EXTT10=
EXTT11=
EXTT12=
EXTT13=
EXTT14=
EXTT15=
PLAYORDER=
